<?xml version="1.0" encoding="utf-8" standalone="no"?>
<!DOCTYPE svg PUBLIC "-//W3C//DTD SVG 1.1//EN" "http://www.w3.org/Graphics/SVG/1.1/DTD/svg11-flat-20030114.dtd">
<!-- Created by SVGDeveloper 1.0 -->
<svg width="480" height="480" version="1.1" xmlns="http://www.w3.org/2000/svg" xmlns:xlink="http://www.w3.org/1999/xlink">
<g transform="matrix(1.722,0,0,2.03,-3.482,56.818)" xmlns="http://www.w3.org/2000/svg" fill="#FFFFFF">
<path d="m43.112 43.328c2.842 2.085 5.474 4.436 8.126 6.744 15.573 13.434 32.316 25.55 50.252 35.628 20.232 12.607 45.939 13.109 68.322 6.531 19.463-6.086 34.625-20.312 50.789-32.049-14.326 28.926-23.02 60.585-40.631 87.855-6.778 10.031-14.158 20.498-25.271 26.07-17.268 9.188-40.599 7.525-54.812-6.529-11.002-11.861-19.619-25.771-26.643-40.295-12.877-26.9-20.568-55.805-30.133-83.952z" fill="transparent" />
<path d="m211.12 23.163c7.269-5.083 15.964-8.417 24.882-8.528 7.524 0.257 13.988 4.771 18.684 10.39 3.445 4.548 7.111 9.018 9.271 14.358-1.895-0.211-3.688-0.825-5.451-1.527-1.895-5.396-5.975-9.598-9.106-14.279-4.237-5.876-12.206-6.086-18.75-5.396-4.046 2.007-8.751 2.552-12.25 5.641-2.12 2.115-4.99 0.065-7.27-0.659z" />
<path d="m235.37 24.333c5.384 2.954 4.515 9.933 2.908 14.882-7.233 31.87-19.698 62.225-32.796 92.042-3.713 7.48-6.354 15.484-10.893 22.541-5.65 9.34-10.945 19.174-19.019 26.697-6.343 7.012-15.093 12.129-24.502 13.41-7.437 0.367-14.938 2.742-22.339 0.523-12.574-1.828-23.042-9.688-32.338-17.824-3.935-3.555-6.745-8.094-10.401-11.904-22.516-30.61-33.753-67.496-44.891-103.36-3.032-8.816-4.871-18.091-8.973-26.508 1.928-1.951 4.069-3.789 6.699-4.669 5.841 0.958 9.888 5.718 13.121 10.289 4.526 2.819 7.491 7.446 11.938 10.354 11.426 9.343 24.046 17.113 36.798 24.513 4.77 2.709 9.174 6.242 14.514 7.792 5.573 1.883 11.359 3.187 17.167 3.991 6.733-0.201 13.601 0.735 20.198-0.97 10.389-1.228 20.066-5.384 29.617-9.408 7.403-4.224 14.795-8.751 20.758-14.937 3.588-2.296 6.6-5.295 8.871-8.896 7.805-7.558 14.07-16.442 21.08-24.69 0.96-1.203 1.66-2.585 2.48-3.878m-192.26 18.995c9.565 28.147 17.256 57.053 30.131 83.951 7.023 14.525 15.64 28.438 26.642 40.299 14.213 14.057 37.544 15.717 54.812 6.529 11.113-5.572 18.494-16.039 25.271-26.07 17.612-27.27 26.308-58.927 40.631-87.855-16.164 11.738-31.325 25.962-50.789 32.048-22.383 6.576-48.088 6.075-68.321-6.533-17.938-10.079-34.682-22.197-50.254-35.63-2.651-2.306-5.282-4.657-8.124-6.742z" />
<path d="m256.23 37.084c0.74 0.76 0.74 0.76 0 0z" />
<path d="m56.913 27.834c-3.501-3.089-8.205-3.635-12.251-5.642-6.543-0.691-14.514-0.479-18.75 5.395-3.132 4.682-7.212 8.886-9.107 14.281-1.761 0.703-3.555 1.316-5.451 1.526 2.163-5.338 5.829-9.81 9.274-14.356 4.694-5.619 11.158-10.134 18.683-10.39 8.918 0.112 17.614 3.445 24.881 8.526-2.273 0.726-5.149 2.778-7.279 0.66z" />
</g>

</svg>